<?xml version="1.0"?>
<svg xmlns="http://www.w3.org/2000/svg" xmlns:xlink="http://www.w3.org/1999/xlink" xmlns:svgjs="http://svgjs.com/svgjs" version="1.1" width="512" height="512" x="0" y="0" viewBox="0 0 512 512" style="enable-background:new 0 0 512 512" xml:space="preserve" class=""><g><g xmlns="http://www.w3.org/2000/svg"><g><path d="m361.067 11.84c-2.882-3.323-7.052-5.833-12.751-7.67-.064-.021-.13-.042-.195-.061-4.848-1.455-10.521-2.52-16.86-3.167-6.206-.634-14.231-.942-24.536-.942-10.309 0-18.445.307-24.896.94-6.676.667-12.577 1.783-17.066 3.227-.066.021-.133.043-.198.066-5.359 1.847-9.344 4.336-12.182 7.609-3.179 3.668-4.858 8.175-4.858 13.033v186.125c0 5.523 4.478 10 10 10s10-4.477 10-10l.004-186.092c.161-.161.97-.865 3.453-1.731 1.855-.588 5.92-1.644 12.819-2.334 5.777-.568 13.275-.843 22.924-.843 9.619 0 16.979.274 22.504.838 5.038.514 9.426 1.321 13.044 2.397 2.471.806 3.396 1.471 3.652 1.692v335.447c0 21.005-1.966 40.135-5.824 56.775-3.92 16.273-10.318 29.953-19.017 40.659-.023.029-.047.059-.07.088-8.663 10.913-20.259 19.385-34.466 25.181-14.508 5.921-33.084 8.923-55.211 8.923-7.1 0-14.026-.516-20.588-1.534-7.38-1.145-13.518-2.461-18.765-4.025-.08-.024-.161-.046-.242-.068-5.42-1.468-10.248-3.162-14.348-5.036-.072-.033-.145-.065-.218-.097-3.773-1.617-5.091-2.575-5.37-2.797-.039-.044-.079-.089-.12-.133-1.085-1.175-1.896-2.244-2.48-3.266-.054-.094-.109-.187-.166-.279-.122-.199-.584-1.085-1.382-4.146-.01-.036-.02-.071-.029-.107-.576-2.115-.977-5.021-1.191-8.652-.241-3.986-.363-9.172-.363-15.415 0-9.106.155-15.727.487-20.833.42-6.432 1.094-9.958 1.609-11.873.185-.713.366-1.239.518-1.615.465.104 1.351.394 2.552 1.073.053.03.105.059.158.087 3.527 1.911 6.765 3.64 10.646 5.454 3.861 1.86 8.343 3.621 14.094 5.539 6.084 2.027 13.051 3.055 20.706 3.055 8.023 0 14.97-1.114 21.31-3.434 6.951-2.606 12.713-7.012 17.128-13.096 4.239-5.679 7.379-13.185 9.336-22.313 1.957-8.438 2.908-18.883 2.908-31.927v-55.562c0-5.523-4.478-10-10-10s-10 4.477-10 10v55.561c0 11.384-.81 20.628-2.407 27.478-.015.062-.028.124-.042.187-1.354 6.35-3.321 11.277-5.848 14.646-.036.048-.071.096-.106.145-2.104 2.915-4.719 4.927-7.915 6.126-4.025 1.473-8.724 2.188-14.363 2.188-5.503 0-10.342-.683-14.382-2.029-4.883-1.628-8.737-3.134-11.782-4.604-.039-.019-.079-.038-.118-.056-3.651-1.704-6.926-3.475-9.566-4.905-4.266-2.396-8.617-3.661-12.589-3.661-4.969 0-9.238 1.48-12.688 4.401-.101.085-.199.171-.295.26-3.095 2.835-5.258 6.755-6.589 11.894-1.071 3.98-1.801 9.109-2.229 15.679-.362 5.551-.53 12.585-.53 22.135 0 6.644.135 12.236.399 16.608.297 5.039.9 9.184 1.846 12.667.783 2.999 1.824 6.442 3.599 9.382 1.305 2.257 2.927 4.434 4.952 6.644 2.448 2.802 6.267 5.228 12.318 7.831 5.036 2.293 10.823 4.334 17.204 6.068 6.095 1.809 13.062 3.309 21.29 4.585 7.572 1.175 15.531 1.771 23.654 1.771 24.729 0 45.848-3.5 62.767-10.402 17.407-7.103 31.719-17.605 42.539-31.219 10.578-13.034 18.283-29.367 22.922-48.627 4.222-18.202 6.361-38.852 6.361-61.375v-335.5c-.003-4.862-1.683-9.369-4.862-13.038z" fill="#ffffff" data-original="#000000" style=""/><path d="m257.533 266c5.522 0 10-4.477 10-10s-4.478-10-10-10h-.008c-5.522 0-9.996 4.477-9.996 10s4.481 10 10.004 10z" fill="#ffffff" data-original="#000000" style=""/></g></g></g></svg>
